<mxfile host="65bd71144e">
    <diagram id="1DmJG_v_HB7CN_tW5fvp" name="Page-1">
        <mxGraphModel dx="557" dy="389" grid="1" gridSize="10" guides="1" tooltips="1" connect="1" arrows="1" fold="1" page="1" pageScale="1" pageWidth="827" pageHeight="1169" background="#ffffff" math="0" shadow="0">
            <root>
                <mxCell id="0"/>
                <mxCell id="1" parent="0"/>
                <mxCell id="22" value="klass" style="edgeStyle=none;html=1;fontSize=10;fontStyle=0;fillColor=#f5f5f5;strokeColor=#666666;" parent="1" source="20" target="21" edge="1">
                    <mxGeometry relative="1" as="geometry">
                        <mxPoint as="offset"/>
                    </mxGeometry>
                </mxCell>
                <mxCell id="20" value="&lt;span&gt;Object&lt;/span&gt;" style="html=1;fontSize=10;fontStyle=0;fillColor=#dae8fc;strokeColor=#6c8ebf;" parent="1" vertex="1">
                    <mxGeometry x="450" y="120" width="110" height="50" as="geometry"/>
                </mxCell>
                <mxCell id="24" value="" style="edgeStyle=none;html=1;fontSize=10;fontStyle=0;fillColor=#f5f5f5;strokeColor=#666666;" parent="1" source="21" target="23" edge="1">
                    <mxGeometry relative="1" as="geometry"/>
                </mxCell>
                <mxCell id="21" value="&lt;span&gt;#Object&lt;/span&gt;" style="html=1;fontSize=10;fontStyle=0;fillColor=#f5f5f5;fontColor=#333333;strokeColor=#666666;" parent="1" vertex="1">
                    <mxGeometry x="640" y="120" width="110" height="50" as="geometry"/>
                </mxCell>
                <mxCell id="23" value="&lt;span&gt;Class&lt;/span&gt;" style="html=1;fontSize=10;fontStyle=0;fillColor=#f5f5f5;fontColor=#333333;strokeColor=#666666;" parent="1" vertex="1">
                    <mxGeometry x="640" y="30" width="110" height="50" as="geometry"/>
                </mxCell>
                <mxCell id="26" value="super" style="edgeStyle=none;html=1;fontSize=10;fontStyle=0;fillColor=#dae8fc;strokeColor=#6c8ebf;" parent="1" source="25" target="20" edge="1">
                    <mxGeometry relative="1" as="geometry"/>
                </mxCell>
                <mxCell id="29" value="klass" style="edgeStyle=none;html=1;fontSize=10;fontStyle=0;fillColor=#f5f5f5;strokeColor=#666666;" parent="1" source="25" target="27" edge="1">
                    <mxGeometry relative="1" as="geometry"/>
                </mxCell>
                <mxCell id="25" value="&lt;span&gt;Vehicle&lt;/span&gt;" style="html=1;fontSize=10;fontStyle=0;fillColor=#dae8fc;strokeColor=#6c8ebf;" parent="1" vertex="1">
                    <mxGeometry x="450" y="220" width="110" height="50" as="geometry"/>
                </mxCell>
                <mxCell id="28" value="super" style="edgeStyle=none;html=1;fontSize=10;fontStyle=0;fillColor=#f5f5f5;strokeColor=#666666;" parent="1" source="27" target="21" edge="1">
                    <mxGeometry relative="1" as="geometry"/>
                </mxCell>
                <mxCell id="27" value="&lt;span&gt;#Vehicle&lt;/span&gt;" style="html=1;fontSize=10;fontStyle=0;fillColor=#f5f5f5;fontColor=#333333;strokeColor=#666666;" parent="1" vertex="1">
                    <mxGeometry x="640" y="220" width="110" height="50" as="geometry"/>
                </mxCell>
                <mxCell id="33" value="klass" style="edgeStyle=none;html=1;fontSize=10;fontStyle=0;fillColor=#f5f5f5;strokeColor=#666666;" parent="1" source="30" target="31" edge="1">
                    <mxGeometry relative="1" as="geometry"/>
                </mxCell>
                <mxCell id="34" value="super" style="edgeStyle=none;html=1;fontSize=10;fontStyle=0;fillColor=#dae8fc;strokeColor=#6c8ebf;" parent="1" source="30" target="25" edge="1">
                    <mxGeometry relative="1" as="geometry"/>
                </mxCell>
                <mxCell id="30" value="&lt;span&gt;Car&lt;/span&gt;" style="html=1;fontSize=10;fontStyle=0;fillColor=#dae8fc;strokeColor=#6c8ebf;" parent="1" vertex="1">
                    <mxGeometry x="450" y="310" width="110" height="50" as="geometry"/>
                </mxCell>
                <mxCell id="32" value="super" style="edgeStyle=none;html=1;fontSize=10;fontStyle=0;fillColor=#f5f5f5;strokeColor=#666666;" parent="1" source="31" target="27" edge="1">
                    <mxGeometry relative="1" as="geometry"/>
                </mxCell>
                <mxCell id="31" value="&lt;span&gt;#Car&lt;/span&gt;" style="html=1;fontSize=10;fontStyle=0;fillColor=#f5f5f5;fontColor=#333333;strokeColor=#666666;" parent="1" vertex="1">
                    <mxGeometry x="640" y="310" width="110" height="50" as="geometry"/>
                </mxCell>
                <mxCell id="40" value="" style="edgeStyle=none;html=1;fontSize=10;fontStyle=0" parent="1" source="37" target="38" edge="1">
                    <mxGeometry relative="1" as="geometry"/>
                </mxCell>
                <mxCell id="37" value="&lt;span&gt;car&lt;/span&gt;" style="html=1;fontSize=10;fontStyle=0;fillColor=#dae8fc;strokeColor=#6c8ebf;" parent="1" vertex="1">
                    <mxGeometry x="280" y="410" width="110" height="50" as="geometry"/>
                </mxCell>
                <mxCell id="39" value="" style="edgeStyle=none;html=1;fontSize=10;fontStyle=0;fillColor=#f5f5f5;strokeColor=#666666;" parent="1" source="38" target="30" edge="1">
                    <mxGeometry relative="1" as="geometry"/>
                </mxCell>
                <mxCell id="38" value="&lt;span&gt;#car&lt;/span&gt;" style="html=1;fontSize=10;fontStyle=0;fillColor=#f5f5f5;strokeColor=#666666;fontColor=#333333;" parent="1" vertex="1">
                    <mxGeometry x="450" y="410" width="110" height="50" as="geometry"/>
                </mxCell>
            </root>
        </mxGraphModel>
    </diagram>
</mxfile>